<svg width="20" height="20" viewBox="0 0 20 20" fill="none" xmlns="http://www.w3.org/2000/svg">
<path d="M6.24992 8.33329H7.08325C7.30427 8.33329 7.51623 8.2455 7.67251 8.08922C7.82879 7.93293 7.91659 7.72097 7.91659 7.49996C7.91659 7.27895 7.82879 7.06698 7.67251 6.9107C7.51623 6.75442 7.30427 6.66663 7.08325 6.66663H6.24992C6.0289 6.66663 5.81694 6.75442 5.66066 6.9107C5.50438 7.06698 5.41659 7.27895 5.41659 7.49996C5.41659 7.72097 5.50438 7.93293 5.66066 8.08922C5.81694 8.2455 6.0289 8.33329 6.24992 8.33329ZM9.58325 13.3333H6.24992C6.0289 13.3333 5.81694 13.4211 5.66066 13.5774C5.50438 13.7337 5.41659 13.9456 5.41659 14.1666C5.41659 14.3876 5.50438 14.5996 5.66066 14.7559C5.81694 14.9122 6.0289 15 6.24992 15H9.58325C9.80427 15 10.0162 14.9122 10.1725 14.7559C10.3288 14.5996 10.4166 14.3876 10.4166 14.1666C10.4166 13.9456 10.3288 13.7337 10.1725 13.5774C10.0162 13.4211 9.80427 13.3333 9.58325 13.3333ZM9.58325 9.99996H6.24992C6.0289 9.99996 5.81694 10.0878 5.66066 10.244C5.50438 10.4003 5.41659 10.6123 5.41659 10.8333C5.41659 11.0543 5.50438 11.2663 5.66066 11.4225C5.81694 11.5788 6.0289 11.6666 6.24992 11.6666H9.58325C9.80427 11.6666 10.0162 11.5788 10.1725 11.4225C10.3288 11.2663 10.4166 11.0543 10.4166 10.8333C10.4166 10.6123 10.3288 10.4003 10.1725 10.244C10.0162 10.0878 9.80427 9.99996 9.58325 9.99996ZM15.3499 7.81663C15.4137 7.66487 15.4312 7.49761 15.4 7.33595C15.3689 7.17429 15.2905 7.02548 15.1749 6.90829L10.1749 1.90829C10.106 1.84347 10.0273 1.79003 9.94159 1.74996C9.91671 1.74643 9.89146 1.74643 9.86659 1.74996L9.63325 1.66663H4.58325C3.92021 1.66663 3.28433 1.93002 2.81549 2.39886C2.34664 2.8677 2.08325 3.50358 2.08325 4.16663V15.8333C2.08325 16.4963 2.34664 17.1322 2.81549 17.6011C3.28433 18.0699 3.92021 18.3333 4.58325 18.3333H9.58325C9.80427 18.3333 10.0162 18.2455 10.1725 18.0892C10.3288 17.9329 10.4166 17.721 10.4166 17.5C10.4166 17.2789 10.3288 17.067 10.1725 16.9107C10.0162 16.7544 9.80427 16.6666 9.58325 16.6666H4.58325C4.36224 16.6666 4.15028 16.5788 3.994 16.4225C3.83772 16.2663 3.74992 16.0543 3.74992 15.8333V4.16663C3.74992 3.94561 3.83772 3.73365 3.994 3.57737C4.15028 3.42109 4.36224 3.33329 4.58325 3.33329H8.74992V5.83329C8.74992 6.49633 9.01331 7.13222 9.48215 7.60106C9.95099 8.0699 10.5869 8.33329 11.2499 8.33329H14.5833C14.7478 8.33247 14.9084 8.28297 15.0448 8.19103C15.1812 8.09908 15.2874 7.96881 15.3499 7.81663V7.81663ZM11.2499 6.66663C11.0289 6.66663 10.8169 6.57883 10.6607 6.42255C10.5044 6.26627 10.4166 6.05431 10.4166 5.83329V4.50829L12.5749 6.66663H11.2499ZM17.0833 9.99996H12.9166C12.6956 9.99996 12.4836 10.0878 12.3273 10.244C12.171 10.4003 12.0833 10.6123 12.0833 10.8333V17.5C12.0837 17.6507 12.1249 17.7985 12.2027 17.9277C12.2805 18.0568 12.3919 18.1624 12.5249 18.2333C12.6552 18.3002 12.8009 18.3316 12.9472 18.3243C13.0935 18.317 13.2353 18.2712 13.3583 18.1916L14.9999 17.1083L16.6666 18.1916C16.7911 18.2636 16.9321 18.3022 17.0759 18.3035C17.2197 18.3049 17.3614 18.269 17.4872 18.1994C17.6131 18.1298 17.7188 18.0288 17.794 17.9062C17.8692 17.7836 17.9115 17.6437 17.9166 17.5V10.8333C17.9166 10.6123 17.8288 10.4003 17.6725 10.244C17.5162 10.0878 17.3043 9.99996 17.0833 9.99996ZM16.2499 15.9333L15.4666 15.4083C15.3288 15.3151 15.1663 15.2654 14.9999 15.2654C14.8336 15.2654 14.6711 15.3151 14.5333 15.4083L13.7499 15.9333V11.6666H16.2499V15.9333Z" fill="#111111"/>
</svg>
