<svg width="20" height="20" viewBox="0 0 20 20" fill="none" xmlns="http://www.w3.org/2000/svg">
<path d="M11.0834 10.1833C11.5281 9.7984 11.8847 9.32236 12.1291 8.78748C12.3736 8.25259 12.5001 7.67138 12.5001 7.08329C12.5001 5.97822 12.0611 4.91842 11.2797 4.13701C10.4983 3.35561 9.43848 2.91663 8.33342 2.91663C7.22835 2.91663 6.16854 3.35561 5.38714 4.13701C4.60574 4.91842 4.16675 5.97822 4.16675 7.08329C4.16674 7.67138 4.29325 8.25259 4.53769 8.78748C4.78212 9.32236 5.13877 9.7984 5.58341 10.1833C4.41686 10.7115 3.42714 11.5646 2.73256 12.6404C2.03799 13.7163 1.66797 14.9694 1.66675 16.25C1.66675 16.471 1.75455 16.6829 1.91083 16.8392C2.06711 16.9955 2.27907 17.0833 2.50008 17.0833C2.7211 17.0833 2.93306 16.9955 3.08934 16.8392C3.24562 16.6829 3.33341 16.471 3.33341 16.25C3.33341 14.9239 3.8602 13.6521 4.79788 12.7144C5.73556 11.7767 7.00733 11.25 8.33342 11.25C9.6595 11.25 10.9313 11.7767 11.8689 12.7144C12.8066 13.6521 13.3334 14.9239 13.3334 16.25C13.3334 16.471 13.4212 16.6829 13.5775 16.8392C13.7338 16.9955 13.9457 17.0833 14.1667 17.0833C14.3878 17.0833 14.5997 16.9955 14.756 16.8392C14.9123 16.6829 15.0001 16.471 15.0001 16.25C14.9989 14.9694 14.6288 13.7163 13.9343 12.6404C13.2397 11.5646 12.25 10.7115 11.0834 10.1833ZM8.33342 9.58329C7.83896 9.58329 7.35561 9.43667 6.94449 9.16197C6.53337 8.88726 6.21294 8.49682 6.02372 8.04C5.8345 7.58319 5.78499 7.08052 5.88145 6.59557C5.97791 6.11061 6.21602 5.66516 6.56565 5.31553C6.91528 4.96589 7.36074 4.72779 7.84569 4.63133C8.33064 4.53487 8.83331 4.58438 9.29012 4.77359C9.74694 4.96281 10.1374 5.28324 10.4121 5.69437C10.6868 6.10549 10.8334 6.58884 10.8334 7.08329C10.8334 7.74633 10.57 8.38222 10.1012 8.85106C9.63234 9.3199 8.99646 9.58329 8.33342 9.58329ZM17.4251 9.99996L18.0917 9.34163C18.1694 9.26393 18.2311 9.17169 18.2731 9.07017C18.3152 8.96865 18.3368 8.85984 18.3368 8.74996C18.3368 8.64008 18.3152 8.53127 18.2731 8.42975C18.2311 8.32823 18.1694 8.23599 18.0917 8.15829C18.014 8.08059 17.9218 8.01896 17.8203 7.97691C17.7188 7.93486 17.61 7.91322 17.5001 7.91322C17.3902 7.91322 17.2814 7.93486 17.1799 7.97691C17.0784 8.01896 16.9861 8.08059 16.9084 8.15829L16.2501 8.82496L15.5917 8.15829C15.514 8.08059 15.4218 8.01896 15.3203 7.97691C15.2188 7.93486 15.11 7.91322 15.0001 7.91322C14.7782 7.91322 14.5653 8.00137 14.4084 8.15829C14.3307 8.23599 14.2691 8.32823 14.227 8.42975C14.185 8.53127 14.1633 8.64008 14.1633 8.74996C14.1633 8.97188 14.2515 9.18471 14.4084 9.34163L15.0751 9.99996L14.4084 10.6583C14.3303 10.7358 14.2683 10.8279 14.226 10.9295C14.1837 11.031 14.1619 11.1399 14.1619 11.25C14.1619 11.36 14.1837 11.4689 14.226 11.5704C14.2683 11.672 14.3303 11.7642 14.4084 11.8416C14.4859 11.9197 14.5781 11.9817 14.6796 12.024C14.7812 12.0663 14.8901 12.0881 15.0001 12.0881C15.1101 12.0881 15.219 12.0663 15.3206 12.024C15.4221 11.9817 15.5143 11.9197 15.5917 11.8416L16.2501 11.175L16.9084 11.8416C16.9859 11.9197 17.0781 11.9817 17.1796 12.024C17.2812 12.0663 17.3901 12.0881 17.5001 12.0881C17.6101 12.0881 17.719 12.0663 17.8206 12.024C17.9221 11.9817 18.0143 11.9197 18.0917 11.8416C18.1699 11.7642 18.2319 11.672 18.2742 11.5704C18.3165 11.4689 18.3382 11.36 18.3382 11.25C18.3382 11.1399 18.3165 11.031 18.2742 10.9295C18.2319 10.8279 18.1699 10.7358 18.0917 10.6583L17.4251 9.99996Z" fill="#111111"/>
</svg>
