<svg width="25" height="25" viewBox="0 0 25 25" fill="none" xmlns="http://www.w3.org/2000/svg">
<path fill-rule="evenodd" clip-rule="evenodd" d="M8.13542 2.08337H16.8656C20.0833 2.08337 21.875 3.93754 21.875 7.11462V17.875C21.875 21.1042 20.0833 22.9167 16.8656 22.9167H8.13542C4.96875 22.9167 3.125 21.1042 3.125 17.875V7.11462C3.125 3.93754 4.96875 2.08337 8.13542 2.08337ZM8.41667 6.93754V6.92712H11.5302C11.9792 6.92712 12.3438 7.29171 12.3438 7.73858C12.3438 8.19796 11.9792 8.56254 11.5302 8.56254H8.41667C7.96771 8.56254 7.60417 8.19796 7.60417 7.75004C7.60417 7.30212 7.96771 6.93754 8.41667 6.93754ZM8.41667 13.2709H16.5833C17.0313 13.2709 17.3958 12.9063 17.3958 12.4584C17.3958 12.0105 17.0313 11.6448 16.5833 11.6448H8.41667C7.96771 11.6448 7.60417 12.0105 7.60417 12.4584C7.60417 12.9063 7.96771 13.2709 8.41667 13.2709ZM8.41667 18.0313H16.5833C16.999 17.9896 17.3125 17.6344 17.3125 17.2188C17.3125 16.7917 16.999 16.4375 16.5833 16.3959H8.41667C8.10417 16.3646 7.80208 16.5105 7.63542 16.7813C7.46875 17.0417 7.46875 17.3855 7.63542 17.6563C7.80208 17.9167 8.10417 18.073 8.41667 18.0313Z" fill="#6A6A6A"/>
</svg>
