<svg width="20" height="20" viewBox="0 0 20 20" fill="none" xmlns="http://www.w3.org/2000/svg">
<path d="M14.1666 7.49996V5.83329C14.1666 4.72822 13.7276 3.66842 12.9462 2.88701C12.1648 2.10561 11.105 1.66663 9.99992 1.66663C8.89485 1.66663 7.83504 2.10561 7.05364 2.88701C6.27224 3.66842 5.83325 4.72822 5.83325 5.83329V7.49996C5.17021 7.49996 4.53433 7.76335 4.06549 8.23219C3.59664 8.70103 3.33325 9.33692 3.33325 9.99996V15.8333C3.33325 16.4963 3.59664 17.1322 4.06549 17.6011C4.53433 18.0699 5.17021 18.3333 5.83325 18.3333H14.1666C14.8296 18.3333 15.4655 18.0699 15.9344 17.6011C16.4032 17.1322 16.6666 16.4963 16.6666 15.8333V9.99996C16.6666 9.33692 16.4032 8.70103 15.9344 8.23219C15.4655 7.76335 14.8296 7.49996 14.1666 7.49996ZM7.49992 5.83329C7.49992 5.17025 7.76331 4.53437 8.23215 4.06553C8.70099 3.59668 9.33688 3.33329 9.99992 3.33329C10.663 3.33329 11.2988 3.59668 11.7677 4.06553C12.2365 4.53437 12.4999 5.17025 12.4999 5.83329V7.49996H7.49992V5.83329ZM14.9999 15.8333C14.9999 16.0543 14.9121 16.2663 14.7558 16.4225C14.5996 16.5788 14.3876 16.6666 14.1666 16.6666H5.83325C5.61224 16.6666 5.40028 16.5788 5.244 16.4225C5.08772 16.2663 4.99992 16.0543 4.99992 15.8333V9.99996C4.99992 9.77895 5.08772 9.56698 5.244 9.4107C5.40028 9.25442 5.61224 9.16663 5.83325 9.16663H14.1666C14.3876 9.16663 14.5996 9.25442 14.7558 9.4107C14.9121 9.56698 14.9999 9.77895 14.9999 9.99996V15.8333Z" fill="black"/>
</svg>
